<svg class="{{ . }}" role="img" version="1.1" viewBox="0 0 24 24" xmlns="http://www.w3.org/2000/svg"><title>Instagram</title><path d="m12 0c-3.3 0-3.7 0.015-4.9 0.072-1.3 0.06-2.1 0.26-2.9 0.56-0.79 0.31-1.5 0.72-2.1 1.4s-1.1 1.3-1.4 2.1c-0.3 0.76-0.5 1.6-0.56 2.9-0.06 1.3-0.072 1.7-0.072 4.9s0.015 3.7 0.072 4.9c0.06 1.3 0.26 2.1 0.56 2.9 0.31 0.79 0.72 1.5 1.4 2.1 0.67 0.67 1.3 1.1 2.1 1.4 0.77 0.3 1.6 0.5 2.9 0.56 1.3 0.06 1.7 0.072 4.9 0.072s3.7-0.015 4.9-0.072c1.3-0.06 2.1-0.26 2.9-0.56 0.79-0.31 1.5-0.72 2.1-1.4 0.67-0.67 1.1-1.3 1.4-2.1 0.3-0.76 0.5-1.6 0.56-2.9 0.06-1.3 0.072-1.7 0.072-4.9s-0.015-3.7-0.072-4.9c-0.06-1.3-0.26-2.1-0.56-2.9-0.31-0.79-0.72-1.5-1.4-2.1-0.67-0.67-1.3-1.1-2.1-1.4-0.76-0.3-1.6-0.5-2.9-0.56-1.3-0.06-1.7-0.072-4.9-0.072zm0 2.2c3.2 0 3.6 0.016 4.8 0.071 1.2 0.055 1.8 0.25 2.2 0.42 0.56 0.22 0.96 0.48 1.4 0.9 0.42 0.42 0.68 0.82 0.9 1.4 0.16 0.42 0.36 1.1 0.41 2.2 0.057 1.3 0.07 1.6 0.07 4.8s-0.015 3.6-0.074 4.8c-0.061 1.2-0.26 1.8-0.42 2.2-0.22 0.56-0.48 0.96-0.9 1.4-0.42 0.42-0.82 0.68-1.4 0.9-0.42 0.16-1.1 0.36-2.2 0.41-1.3 0.057-1.6 0.07-4.9 0.07-3.2 0-3.6-0.015-4.9-0.074-1.2-0.061-1.8-0.26-2.2-0.42-0.57-0.22-0.96-0.48-1.4-0.9-0.42-0.42-0.69-0.82-0.9-1.4-0.16-0.42-0.36-1.1-0.42-2.2-0.045-1.3-0.061-1.6-0.061-4.8 0-3.2 0.016-3.6 0.061-4.9 0.061-1.2 0.26-1.8 0.42-2.2 0.21-0.57 0.48-0.96 0.9-1.4 0.42-0.42 0.81-0.69 1.4-0.9 0.42-0.17 1.1-0.36 2.2-0.42 1.3-0.045 1.6-0.06 4.9-0.06l0.045 0.03zm0 3.7c-3.4 0-6.2 2.8-6.2 6.2 0 3.4 2.8 6.2 6.2 6.2 3.4 0 6.2-2.8 6.2-6.2 0-3.4-2.8-6.2-6.2-6.2zm0 10c-2.2 0-4-1.8-4-4s1.8-4 4-4 4 1.8 4 4-1.8 4-4 4zm7.8-10c0 0.8-0.65 1.4-1.4 1.4-0.8 0-1.4-0.65-1.4-1.4s0.65-1.4 1.4-1.4c0.79-1e-3 1.4 0.64 1.4 1.4z"/></svg>
