<svg class="{{ . }}" role="img" version="1.1" viewBox="0 0 24 24" xmlns="http://www.w3.org/2000/svg" xmlns:xlink="http://www.w3.org/1999/xlink"><defs><linearGradient id="b" x1="-5.04" x2="-5" y1="-11.5" y2="-5.46" gradientTransform="matrix(1.86 0 0 1.88 20.8 23.7)" gradientUnits="userSpaceOnUse"><stop stop-color="#0f97fd" offset="0"/><stop stop-color="#004291" offset="1"/></linearGradient><linearGradient id="a" x1="-5.41" x2="-5.72" y1="9.68" y2="16.5" gradientTransform="matrix(1.23 0 0 1.1 7.48 2.34)" gradientUnits="userSpaceOnUse"><stop stop-color="#0aed00" offset="0"/><stop stop-color="#009005" offset="1"/></linearGradient></defs><g fill-rule="evenodd"><path d="m22.6 5.56c-2.14 3.48-5.02 5.07-7.69 6.86 0.764-0.939 1.43-1.28 2.32-3.15 0 0-0.0569-1.59-1.06-2.75-3 6.19-8.56 8.49-9.54 16a11.8 12.5 0 0 0 5.58 1.47 11.8 12.5 0 0 0 9.61-5.18c-2.58 0.743-4.43 0.918-6.29 0.686 2.46-0.366 4.55-0.727 7.09-2.03a11.8 12.5 0 0 0 1.15-3.23c-2.87 2.04-5.25 2.4-7.29 2.48 3.62-1.04 5.5-2.16 7.53-4.05a11.8 12.5 0 0 0 0.0508-1.15 11.8 12.5 0 0 0-0.117-1.75c-2.5 2.84-5.17 4.28-8.2 4.85 3.36-1.61 5.73-3.35 7.87-6.5a11.8 12.5 0 0 0-0.998-2.57z" fill="#ff7900"/><path transform="matrix(.978 -.21 .27 .963 0 0)" d="m3.26 15.8-1.71 0.202 1.67 0.497s-0.423 1.41-0.707 2.45c-0.604 0.73-1.43 1.77-2.12 2.96 0 0-1.63-2.35-1.67-8.25-0.0301-4.55 1.79-8.02 1.79-8.02 0.817 0.704 2.01 2.09 2.61 4.11l-2.34 1.85 2.67-0.733s0.219 3-0.196 4.93z" fill="url(#a)" stroke-linecap="round" stroke-linejoin="bevel" stroke-width="2.33"/><path d="m12.1 0.201a10.7 11.3 0 0 0-9.05 5.28c3.26 2.24 5.05 5.66 4.88 11.6 2.32-4.43 6.14-6.3 8.05-11.5 1.85 2.48 1.68 3.91 1.68 3.91l-0.82 1.14c1.75-1.35 3.22-2.46 4.72-4.41a10.7 11.3 0 0 0-9.46-6.03z" fill="url(#b)"/></g><path d="m6.06 4.03s1.34-1.17 2.11-1.18c0.896-0.0108 1.16 1.04 1.92 1.04 0.882-0.00269 1.08-1.05 1.94-1.05 1.03 0 1.16 1.2 1.96 1.2 1.02 0 1.43-1.27 2.3-1.27 0.785 0 1.96 1.3 1.96 1.3" fill="none" stroke="#fff" stroke-linecap="round" stroke-linejoin="bevel" stroke-width=".7"/><path d="m6.06 5.5s1.34-1.17 2.11-1.18c0.896-0.0108 1.16 1.04 1.92 1.04 0.882-0.00269 1.08-1.05 1.94-1.05 1.03 0 1.16 1.2 1.96 1.2 1.02 0 1.43-1.27 2.3-1.27 0.785 0 1.96 1.3 1.96 1.3" fill="none" stroke="#fff" stroke-linecap="round" stroke-linejoin="bevel" stroke-width=".7"/><path d="m1.51 5.7s-2.63 5.07-0.401 10.3l0.952-1.21-0.735 1.76c1.82 3.85 4.87 5.54 4.87 5.54l0.0184-0.634c-2.4-2.72-5.27-8.45-4.7-15.8z" fill="#fcd300" fill-rule="evenodd"/></svg>
