<svg class="{{ . }}" viewBox="0 0 24 24" xmlns="http://www.w3.org/2000/svg"><defs><linearGradient id="b" x1="-5" x2="-5" y1="-9.7" y2="-5.1" gradientTransform="matrix(2,0,0,2,19.9,23.9)" gradientUnits="userSpaceOnUse"><stop stop-color="#0072bf" offset="0"/><stop stop-color="#0b324a" offset="1"/></linearGradient><linearGradient id="a" x1="-5.8" x2="-5.8" y1="12.1" y2="18.6" gradientTransform="matrix(1.2 -.2 .27 1 7.8 .6)" gradientUnits="userSpaceOnUse"><stop stop-color="#00963f" offset="0"/><stop stop-color="#004a26" offset="1"/></linearGradient></defs><path d="m3 5.7s5.24 2.45 4.8 11.2c2.32-4.43 6.52-7.23 8.2-11.1 1.61 1.32 1.7 3.5 1.7 3.5l-0.8 1.2s2.74-1.69 4.6-3.9c-3.8-7.58-14.3-7.81-18.5-0.9z" fill="url(#b)"/><path d="m7.4 14.3-1.6 0.5 1.7 0.1v2.4s-0.681 1.03-1.3 3.2c0 0-5.74-6.33-4.3-15 0 0 2.25 0.871 3.8 3.3l-1.9 2.2 2.4-1.3s1 2.15 1.2 4.6z" fill="url(#a)"/><path d="m22.5 5.8c-1.26 2.35-4.6 4.6-7.5 6.3 0 0 1.3-1.14 2.2-2.9 0 0-0.1-1.4-1.1-2.6-2.9 6-8.6 7.7-9.6 15.2 0 0 8.1 4.9 15-3.4-2.7 0.9-5.6 0.6-5.6 0.6s3.5-0.17 6.4-1.8c0 0 0.9-1.35 1.3-3.1-3.53 2.33-7 2.2-7 2.2s3.66-0.43 7.3-3.7c0 0 0.11-1.5-0.1-2.9-3.4 4.1-8.1 4.6-8.1 4.6s4.45-1.21 7.8-6c0 0-0.38-1.48-1-2.5z" fill="#f07c00"/><path d="m6 4.2s1.25-1 2.2-1c0.9 0 1 1 1.8 1 0.9 0 1.14-1 2-1 1.03 0 1.2 1.1 1.9 1.1 1 0 1.4-1 2.3-1.1 0.6 0 2.1 1.1 2.1 1.1" fill="none" stroke="#fff" stroke-linecap="round" stroke-width=".6"/><path d="m6 5.7s1.1-1 2.1-1.2c0.9-0.15 1.14 1 1.9 1 0.9 0 1.14-1 2-1 1.03 0 1.1 1.2 1.9 1.2 1.02 0 1.43-1.3 2.3-1.3 0.8 0 2 1.3 2 1.3" fill="none" stroke="#fff" stroke-linecap="round" stroke-width=".6"/><path d="m1 15.6 0.9-0.9-0.7 1.5c1.7 3.64 4.9 5.3 4.9 5.3l0.1-0.5s-6-6.4-4.7-15.2c0 0-2.7 4.46-0.5 9.8z" fill="#fecc00"/></svg>