<?xml version="1.0" encoding="UTF-8" standalone="no"?>
<svg
   class="{{ . }}"
   viewBox="0 0 24 24"
   id="svg9"
   sodipodi:docname="nv mini.svg"
   inkscape:version="1.4.2 (f4327f4, 2025-05-13)"
   version="1.1"
   xmlns:inkscape="http://www.inkscape.org/namespaces/inkscape"
   xmlns:sodipodi="http://sodipodi.sourceforge.net/DTD/sodipodi-0.dtd"
   xmlns="http://www.w3.org/2000/svg"
   xmlns:svg="http://www.w3.org/2000/svg">
  <sodipodi:namedview
     id="namedview9"
     pagecolor="#505050"
     bordercolor="#707070"
     borderopacity="1"
     inkscape:showpageshadow="0"
     inkscape:pageopacity="0"
     inkscape:pagecheckerboard="0"
     inkscape:deskcolor="#505050"
     inkscape:zoom="28.985118"
     inkscape:cx="2.9325394"
     inkscape:cy="17.215731"
     inkscape:window-width="3440"
     inkscape:window-height="1406"
     inkscape:window-x="-11"
     inkscape:window-y="-11"
     inkscape:window-maximized="1"
     inkscape:current-layer="svg9"
     showborder="true" />
  <defs
     id="defs4">
    <linearGradient
       id="b"
       x1="-5.0"
       x2="-5.0"
       y1="-9.7"
       y2="-5.1"
       gradientUnits="userSpaceOnUse"
       gradientTransform="matrix(2,0,0,2,19.9,23.9)">
      <stop
         stop-color="#0f97fd"
         offset="0"
         id="stop1"
         style="stop-color:#0072bf" />
      <stop
         stop-color="#004291"
         offset="1"
         id="stop2"
         style="stop-color:#0b324a" />
    </linearGradient>
    <linearGradient
       id="a"
       x1="-5.8"
       x2="-5.8"
       y1="12.1"
       y2="18.6"
       gradientUnits="userSpaceOnUse"
       gradientTransform="matrix(1.2,-0.2,0.27,1,7.8,0.6)">
      <stop
         stop-color="#0aed00"
         offset="0"
         id="stop3"
         style="stop-color:#00963f" />
      <stop
         stop-color="#009005"
         offset="1"
         id="stop4"
         style="stop-color:#004a26" />
    </linearGradient>
  </defs>
  <path
     d="m 3,5.7 c 0,0 5.235625,2.4475 4.8,11.2 2.319999,-4.43 6.522019,-7.2313499 8.2,-11.1 1.612456,1.3199029 1.7,3.5 1.7,3.5 l -0.8,1.2 c 0,0 2.737782,-1.6900619 4.6,-3.9 C 17.69699,-0.98229227 7.2233379,-1.2087476 3,5.7 Z"
     fill="url(#b)"
     id="path6"
     sodipodi:nodetypes="ccccccc" />
  <path
     d="m 7.4,14.3 -1.6,0.5 1.7,0.1 v 2.4 c 0,0 -0.681315,1.025247 -1.3,3.2 0,0 -5.74221371,-6.334875 -4.3,-15 0,0 2.245925,0.871365 3.8,3.3 L 3.8,11 6.2,9.7 c 0,0 1.0020281,2.151422 1.2,4.6 z"
     id="path5"
     fill="url(#a)" />
  <path
     d="M 22.5,5.8 C 21.24,8.15 17.9,10.4 15,12.1 c 0,0 1.3,-1.14 2.2,-2.9 0,0 -0.1,-1.4 -1.1,-2.6 -2.9,6 -8.6,7.7 -9.6,15.2 0,0 8.1,4.9 15,-3.4 C 18.8,19.3 15.9,19 15.9,19 c 0,0 3.5,-0.17 6.4,-1.8 0,0 0.9,-1.35 1.3,-3.1 -3.53,2.33 -7,2.2 -7,2.2 0,0 3.66,-0.43 7.3,-3.7 0,0 0.11,-1.5 -0.1,-2.9 -3.4,4.1 -8.1,4.6 -8.1,4.6 0,0 4.45,-1.21 7.8,-6 0,0 -0.38,-1.48 -1,-2.5 z"
     fill="#f07c00"
     id="path4" />
  <path
     d="m 6,4.2 c 0,0 1.25,-1.0 2.2,-1 0.9,0 1,1 1.8,1 0.9,0 1.14,-1 2,-1 1.03,0 1.2,1.1 1.9,1.1 1,0 1.4,-1 2.3,-1.1 0.6,0 2.1,1.1 2.1,1.1"
     stroke-linecap="round"
     stroke-width="0.7"
     id="path1"
     stroke="#ffffff"
     fill="none"
     inkscape:label="squiggle2"
     style="stroke-width:0.6;stroke-dasharray:none" />
  <path
     stroke="#ffffff"
     fill="none"
     stroke-width="0.7"
     d="m 6,5.7 c 0,0 1.1,-1.0 2.1,-1.2 0.9,-0.15 1.14,1 1.9,1 0.9,0 1.14,-1 2,-1 1.03,0 1.1,1.2 1.9,1.2 1.02,0 1.43,-1.3 2.3,-1.3 0.8,0 2,1.3 2,1.3"
     stroke-linecap="round"
     inkscape:label="squiggle1"
     style="stroke-width:0.6;stroke-dasharray:none"
     id="path2" />
  <path
     d="m 1,15.6 0.9,-0.9 -0.7,1.5 c 1.7,3.64 4.9,5.3 4.9,5.3 L 6.2,21 c 0,0 -6.0,-6.4 -4.7,-15.2 0,0 -2.7,4.46 -0.5,9.8 z"
     fill="#fcd300"
     id="path9"
     style="fill:#fecc00"
     sodipodi:nodetypes="ccccccc" />
</svg>
